<svg width="34" height="34" viewBox="0 0 34 34" fill="none" xmlns="http://www.w3.org/2000/svg">
<circle cx="17" cy="17" r="1.41667" fill="#222222"/>
<path d="M23.5833 17C23.5833 20.8512 22.8018 24.3131 21.5615 26.7937C20.3062 29.3043 18.6646 30.6667 17 30.6667C15.3354 30.6667 13.6938 29.3043 12.4385 26.7937C11.1982 24.3131 10.4167 20.8512 10.4167 17C10.4167 13.1488 11.1982 9.68687 12.4385 7.20626C13.6938 4.69575 15.3354 3.33334 17 3.33334C18.6646 3.33334 20.3062 4.69575 21.5615 7.20626C22.8018 9.68687 23.5833 13.1488 23.5833 17Z" stroke="#222222"/>
<path d="M20.2917 22.7011C16.9564 24.6267 13.5675 25.6808 10.7991 25.847C7.9973 26.0152 5.99661 25.2747 5.16431 23.8331C4.33202 22.3915 4.6911 20.2887 6.23764 17.9463C7.76575 15.6319 10.3731 13.2241 13.7083 11.2985C17.0436 9.37285 20.4325 8.31875 23.2009 8.15258C26.0027 7.98441 28.0034 8.72488 28.8357 10.1665C29.668 11.608 29.3089 13.7109 27.7624 16.0533C26.2342 18.3677 23.6269 20.7755 20.2917 22.7011Z" stroke="#222222"/>
<path d="M20.2917 11.2986C16.9564 9.37299 13.5675 8.31889 10.7991 8.15272C7.9973 7.98455 5.99661 8.72502 5.16431 10.1666C4.33202 11.6082 4.6911 13.7111 6.23764 16.0534C7.76575 18.3678 10.3731 20.7757 13.7083 22.7013C17.0436 24.6269 20.4325 25.681 23.2009 25.8471C26.0027 26.0153 28.0034 25.2748 28.8357 23.8333C29.668 22.3917 29.3089 20.2888 27.7624 17.9465C26.2342 15.632 23.6269 13.2242 20.2917 11.2986Z" stroke="#222222"/>
</svg>
