<svg width="34" height="34" viewBox="0 0 34 34" fill="none" xmlns="http://www.w3.org/2000/svg">
<path d="M17 5.66667V5.66667C19.1685 5.66667 20.2528 5.66667 21.1533 5.8526C24.6716 6.57908 27.4209 9.32836 28.1474 12.8467C28.3333 13.7472 28.3333 14.8315 28.3333 17V24.3333C28.3333 26.219 28.3333 27.1618 27.7475 27.7475C27.1617 28.3333 26.2189 28.3333 24.3333 28.3333H17C14.8314 28.3333 13.7472 28.3333 12.8467 28.1474C9.32835 27.4209 6.57907 24.6716 5.85259 21.1533C5.66666 20.2528 5.66666 19.1685 5.66666 17V17" stroke="#222222" stroke-width="1.2"/>
<path d="M12.75 15.5833L21.25 15.5833" stroke="#2A4157" stroke-opacity="0.24" stroke-width="1.2" stroke-linecap="round" stroke-linejoin="round"/>
<path d="M7.08334 11.3333L7.08334 2.83333" stroke="#222222" stroke-width="1.2" stroke-linecap="round" stroke-linejoin="round"/>
<path d="M2.83334 7.08333L11.3333 7.08333" stroke="#222222" stroke-width="1.2" stroke-linecap="round" stroke-linejoin="round"/>
<path d="M17 21.25H21.25" stroke="#2A4157" stroke-opacity="0.24" stroke-width="1.2" stroke-linecap="round" stroke-linejoin="round"/>
</svg>
