<svg width="226" height="67" viewBox="0 0 226 67" fill="none" xmlns="http://www.w3.org/2000/svg">
<path fill-rule="evenodd" clip-rule="evenodd" d="M15.9631 59.3443V43.2927H15.9685L15.9628 29.4428L32.5737 29.4371L32.5789 41.8162C41.1655 38.7518 47.2327 31.2515 47.2327 22.4849C47.2327 10.993 36.8073 1.67712 23.9468 1.67712C11.0864 1.67712 0.661026 10.993 0.661026 22.4849V41.5092V43.2927V59.3443C0.661026 62.6278 3.63974 65.2894 7.31413 65.2894H9.31006C12.9844 65.2894 15.9631 62.6278 15.9631 59.3443ZM28.6886 21.345C28.4803 21.47 28.2277 21.5445 27.9488 21.5446L20.5944 21.5472C20.3156 21.5472 20.063 21.4729 19.8546 21.348L16.9298 26.5858C16.4882 27.3765 17.132 28.3059 18.1209 28.3057L30.428 28.3015C31.417 28.3011 32.0599 27.3712 31.6177 26.5808L28.6886 21.345ZM22.7127 14.4588C23.1644 13.4764 24.7213 13.4759 25.1737 14.4581L26.5113 17.3606C26.8717 18.143 26.2281 19.0019 25.2813 19.0023L22.609 19.0032C21.662 19.0035 21.0179 18.145 21.3777 17.3624L22.7127 14.4588Z" fill="#0445FE"/>
<path d="M82.8351 57.6018H75.0872V20.4025H76.9467L80.0176 23.6471C80.7126 23.0602 81.4733 22.5069 82.2996 21.9871C83.1261 21.4673 83.9807 21.023 84.8634 20.6541C85.7651 20.2683 86.6952 19.9667 87.653 19.7486C88.6109 19.5306 89.5781 19.4216 90.5547 19.4216C92.6768 19.4216 94.6683 19.7654 96.527 20.4528C98.4053 21.1235 100.04 22.0793 101.429 23.3201C102.839 24.561 103.946 26.0616 104.754 27.8222C105.562 29.5661 105.965 31.5028 105.965 33.6324C105.965 35.8457 105.562 37.8409 104.754 39.6184C103.946 41.3791 102.839 42.8798 101.429 44.1205C100.04 45.3445 98.4053 46.2836 96.527 46.9375C94.6683 47.5915 92.6768 47.9184 90.5547 47.9184C89.878 47.9184 89.2023 47.8514 88.5258 47.7172C87.8688 47.583 87.2109 47.4071 86.554 47.189C85.9153 46.9543 85.2766 46.6944 84.6382 46.4093C84.0182 46.1243 83.4172 45.8308 82.8351 45.5291V57.6018ZM98.2455 33.6324C98.2455 32.4921 98.039 31.4693 97.626 30.5638C97.2316 29.6583 96.6866 28.8954 95.9924 28.275C95.2971 27.6379 94.4804 27.1516 93.5413 26.8163C92.6021 26.4809 91.6058 26.3132 90.5547 26.3132C89.5024 26.3132 88.5071 26.4809 87.5679 26.8163C86.6474 27.1516 85.8401 27.6379 85.1451 28.275C84.4503 28.8954 83.8961 29.6583 83.4829 30.5638C83.0885 31.4693 82.8913 32.4921 82.8913 33.6324C82.8913 34.7222 83.0885 35.7198 83.4829 36.6254C83.8961 37.5308 84.4503 38.3022 85.1451 38.9392C85.8401 39.5765 86.6474 40.0712 87.5679 40.4233C88.5071 40.7754 89.5024 40.9514 90.5547 40.9514C91.6058 40.9514 92.6021 40.7754 93.5413 40.4233C94.4804 40.0712 95.2971 39.5765 95.9924 38.9392C96.6866 38.3022 97.2316 37.5308 97.626 36.6254C98.039 35.7198 98.2455 34.7222 98.2455 33.6324ZM122.25 40.7502C122.551 40.8341 122.851 40.8928 123.152 40.9263C123.452 40.943 123.752 40.9514 124.052 40.9514C124.804 40.9514 125.527 40.8592 126.222 40.6748C126.918 40.4903 127.565 40.2304 128.166 39.8951C128.786 39.5429 129.331 39.1238 129.801 38.6375C130.288 38.1345 130.683 37.5811 130.984 36.9775L136.619 42.0329C135.905 42.9384 135.079 43.7516 134.139 44.4728C133.219 45.1937 132.213 45.8057 131.125 46.3088C130.054 46.8118 128.917 47.189 127.716 47.4406C126.532 47.7089 125.311 47.843 124.052 47.843C121.93 47.843 119.93 47.4909 118.052 46.7866C116.192 46.0824 114.558 45.1015 113.15 43.8439C111.76 42.5863 110.661 41.094 109.854 39.3668C109.045 37.623 108.642 35.7115 108.642 33.6324C108.642 31.5028 109.045 29.5577 109.854 27.7972C110.661 26.0366 111.76 24.5358 113.15 23.295C114.558 22.0541 116.192 21.09 118.052 20.4025C119.93 19.7151 121.93 19.3712 124.052 19.3712C125.311 19.3712 126.542 19.5054 127.744 19.7737C128.945 20.042 130.082 20.4277 131.153 20.9307C132.242 21.4338 133.256 22.0541 134.196 22.7918C135.135 23.513 135.961 24.3262 136.675 25.2317L122.25 40.7502ZM126.194 26.5898C125.837 26.4724 125.48 26.397 125.123 26.3635C124.785 26.33 124.428 26.3132 124.052 26.3132C123.001 26.3132 122.006 26.4892 121.067 26.8413C120.146 27.1767 119.339 27.663 118.644 28.3001C117.967 28.9374 117.433 29.7086 117.037 30.6142C116.643 31.5028 116.446 32.5089 116.446 33.6324C116.446 33.8838 116.455 34.1689 116.474 34.4875C116.512 34.806 116.559 35.1331 116.615 35.4684C116.691 35.787 116.775 36.0971 116.869 36.399C116.962 36.7008 117.085 36.9691 117.235 37.2039L126.194 26.5898ZM148.255 47.3399H140.562V20.4025H142.422L144.958 23.0184C146.197 22.0123 147.596 21.2409 149.156 20.7044C150.733 20.1509 152.377 19.8743 154.086 19.8743C155.927 19.8743 157.664 20.1929 159.298 20.8301C160.933 21.4505 162.36 22.314 163.581 23.4207C164.801 24.5106 165.758 25.7933 166.454 27.2689C167.168 28.7278 167.524 30.2871 167.524 31.9472V47.3399H159.834V31.9472C159.834 31.2429 159.683 30.5805 159.383 29.9602C159.082 29.323 158.668 28.7697 158.142 28.3001C157.617 27.8307 157.006 27.4618 156.311 27.1934C155.617 26.9252 154.875 26.791 154.086 26.791C153.278 26.791 152.518 26.9252 151.804 27.1934C151.091 27.4618 150.47 27.8307 149.944 28.3001C149.419 28.7697 149.005 29.323 148.705 29.9602C148.405 30.5805 148.255 31.2429 148.255 31.9472V47.3399ZM189.584 47.3399H172.004V40.4987H189.584C190.11 40.4987 190.561 40.331 190.938 39.9957C191.313 39.6604 191.5 39.258 191.5 38.7883C191.5 38.3022 191.313 37.9836 190.938 37.8326C190.561 37.6817 190.11 37.6063 189.584 37.6063H181.584C180.251 37.6063 179.001 37.3799 177.837 36.9271C176.671 36.4745 175.657 35.8625 174.794 35.0911C173.93 34.3031 173.245 33.3892 172.736 32.3495C172.247 31.3099 172.004 30.1949 172.004 29.0044C172.004 27.8139 172.247 26.6989 172.736 25.6592C173.245 24.6197 173.93 23.7142 174.794 22.9429C175.657 22.1716 176.671 21.5678 177.837 21.1319C179.001 20.6792 180.251 20.4528 181.584 20.4528H197.164V27.2941H181.584C181.057 27.2941 180.607 27.4618 180.23 27.7972C179.855 28.1325 179.667 28.5349 179.667 29.0044C179.667 29.4907 179.855 29.9098 180.23 30.2619C180.607 30.5974 181.057 30.7651 181.584 30.7651H189.584C190.899 30.7651 192.138 30.9663 193.304 31.3686C194.468 31.7543 195.483 32.2992 196.345 33.0035C197.211 33.7077 197.895 34.5545 198.403 35.5439C198.91 36.5331 199.164 37.6147 199.164 38.7883C199.164 39.979 198.91 41.094 198.403 42.1336C197.895 43.1564 197.211 44.062 196.345 44.8499C195.483 45.6213 194.468 46.2333 193.304 46.6859C192.138 47.122 190.899 47.3399 189.584 47.3399ZM212.348 13.0834C212.348 13.7206 212.208 14.3158 211.926 14.8692C211.663 15.4224 211.297 15.9087 210.828 16.328C210.357 16.7304 209.803 17.0574 209.165 17.3089C208.546 17.5437 207.879 17.6609 207.165 17.6609C206.452 17.6609 205.775 17.5437 205.137 17.3089C204.517 17.0574 203.972 16.7304 203.502 16.328C203.051 15.9087 202.685 15.4224 202.403 14.8692C202.14 14.3158 202.009 13.7206 202.009 13.0834C202.009 12.463 202.14 11.8761 202.403 11.3227C202.685 10.7527 203.051 10.2664 203.502 9.86395C203.972 9.44482 204.517 9.11779 205.137 8.88303C205.775 8.63159 206.452 8.50577 207.165 8.50577C207.879 8.50577 208.546 8.63159 209.165 8.88303C209.803 9.11779 210.357 9.44482 210.828 9.86395C211.297 10.2664 211.663 10.7527 211.926 11.3227C212.208 11.8761 212.348 12.463 212.348 13.0834ZM211.025 47.3399H203.277V20.4025H211.025V47.3399ZM224.66 47.3399H216.913V9.68793H224.66V47.3399Z" fill="#0445FE"/>
</svg>
