<svg width="34" height="34" viewBox="0 0 34 34" fill="none" xmlns="http://www.w3.org/2000/svg">
<path d="M3.91503 18.9445C3.38632 17.9941 3.12196 17.5188 3.12196 17C3.12196 16.4812 3.38632 16.0059 3.91503 15.0555L6.27717 10.8092L8.77353 6.64032C9.33228 5.70723 9.61166 5.24068 10.061 4.98126C10.5103 4.72184 11.054 4.71316 12.1415 4.69582L17 4.61833L21.8585 4.69582C22.946 4.71316 23.4897 4.72184 23.939 4.98126C24.3884 5.24068 24.6677 5.70722 25.2265 6.64032L27.7228 10.8092L30.085 15.0555C30.6137 16.0059 30.8781 16.4812 30.8781 17C30.8781 17.5188 30.6137 17.9941 30.085 18.9445L27.7228 23.1908L25.2265 27.3597C24.6677 28.2928 24.3884 28.7593 23.939 29.0187C23.4897 29.2782 22.946 29.2868 21.8585 29.3042L17 29.3817L12.1415 29.3042C11.054 29.2868 10.5103 29.2782 10.061 29.0187C9.61166 28.7593 9.33228 28.2928 8.77353 27.3597L6.27717 23.1908L3.91503 18.9445Z" stroke="#222222"/>
<circle cx="17" cy="17" r="4.25" stroke="#222222"/>
</svg>
