<svg width="34" height="33" viewBox="0 0 34 33" fill="none" xmlns="http://www.w3.org/2000/svg">
<path d="M20.2968 2.80099H19.7968V2.82593L19.7992 2.85074L20.2968 2.80099ZM20.2968 2.80097H20.7968V2.77604L20.7943 2.75122L20.2968 2.80097ZM20.3948 3.78191L20.8924 3.73215L20.8924 3.73215L20.3948 3.78191ZM23.6514 5.13081L23.3348 4.74383L23.3348 4.74384L23.6514 5.13081ZM24.4143 4.50659L24.0977 4.11961L24.0977 4.11961L24.4143 4.50659ZM27.095 4.64029L26.7415 4.99384L26.7415 4.99384L27.095 4.64029ZM28.943 6.48823L28.5894 6.84178L28.5894 6.84178L28.943 6.48823ZM29.8745 7.78545L30.3739 7.76054L30.3739 7.76054L29.8745 7.78545ZM29.0767 9.16892L28.6897 8.8523L28.6897 8.8523L29.0767 9.16892ZM28.4524 9.93192L28.8394 10.2485L28.8394 10.2485L28.4524 9.93192ZM29.8013 13.1885L29.8511 12.6909L29.8511 12.6909L29.8013 13.1885ZM30.7823 13.2866L30.7326 13.7841L30.7326 13.7841L30.7823 13.2866ZM32.3248 13.7007L32.6955 13.3651L32.6955 13.3651L32.3248 13.7007ZM32.3248 19.466L32.6955 19.8015L32.6955 19.8015L32.3248 19.466ZM30.7823 19.8801V20.3801H30.8073L30.8321 20.3776L30.7823 19.8801ZM30.7823 19.8801V19.3801H30.7574L30.7326 19.3826L30.7823 19.8801ZM29.8019 19.9781L29.7522 19.4806L29.7522 19.4806L29.8019 19.9781ZM27.1226 20.776L26.6607 20.5846L26.6607 20.5846L27.1226 20.776ZM28.453 23.2347L28.84 22.9181L28.84 22.9181L28.453 23.2347ZM29.0768 23.9971L28.6898 24.3137L28.6898 24.3137L29.0768 23.9971ZM29.8746 25.3805L29.3753 25.3556L29.3753 25.3556L29.8746 25.3805ZM28.9431 26.6777L28.5895 26.3242L28.5895 26.3242L28.9431 26.6777ZM25.7979 29.4573L25.8228 29.9566L25.8228 29.9566L25.7979 29.4573ZM24.4144 28.6594L24.731 28.2724L24.731 28.2724L24.4144 28.6594ZM23.6515 28.0351L23.3348 28.4221L23.3348 28.4221L23.6515 28.0351ZM20.3949 29.3841L19.8974 29.3343L19.8974 29.3343L20.3949 29.3841ZM20.2968 30.3657L19.7992 30.3159L19.7968 30.3407V30.3657H20.2968ZM20.2968 30.3657L20.7943 30.4154L20.7968 30.3906V30.3657H20.2968ZM19.8827 31.9081L20.2182 32.2788L20.2182 32.2788L19.8827 31.9081ZM14.1173 31.9081L13.7818 32.2788L13.7818 32.2788L14.1173 31.9081ZM13.6051 29.3847L13.1076 29.4344L13.1076 29.4344L13.6051 29.3847ZM10.3486 28.0358L10.6652 28.4227L10.6652 28.4227L10.3486 28.0358ZM9.58549 28.6601L9.26888 28.2731L9.26888 28.2731L9.58549 28.6601ZM8.20202 29.458L8.17711 29.9573L8.17712 29.9573L8.20202 29.458ZM6.90481 28.5264L6.55125 28.8799L6.55125 28.8799L6.90481 28.5264ZM5.05686 26.6784L5.41042 26.3249L5.41042 26.3249L5.05686 26.6784ZM4.92316 23.9978L5.31014 24.3144L5.31014 24.3144L4.92316 23.9978ZM5.54745 23.2347L5.16048 22.9181L5.16048 22.9181L5.54745 23.2347ZM4.19855 19.9782L4.2483 19.4807L4.2483 19.4807L4.19855 19.9782ZM3.21765 19.8801L3.2674 19.3826L3.24259 19.3801H3.21765V19.8801ZM3.21763 19.8801L3.16788 20.3776L3.19269 20.3801H3.21763V19.8801ZM1.6752 19.466L2.04593 19.1305L2.04593 19.1305L1.6752 19.466ZM1.41666 17.89L0.916656 17.89L1.41666 17.89ZM1.41666 15.2766L1.91666 15.2766L1.41666 15.2766ZM1.6752 13.7006L1.30448 13.3651L1.30448 13.3651L1.6752 13.7006ZM3.21765 13.2866L3.1679 12.789L3.1679 12.789L3.21765 13.2866ZM4.19915 13.1884L4.1494 12.6909L4.1494 12.6909L4.19915 13.1884ZM6.87844 12.3906L7.34038 12.5819L7.34038 12.5819L6.87844 12.3906ZM5.54806 9.93187L5.14806 10.2319L5.1544 10.2403L5.16109 10.2485L5.54806 9.93187ZM5.54806 9.93187L5.94806 9.63187L5.94173 9.62342L5.93504 9.61525L5.54806 9.93187ZM4.92325 9.16821L4.53627 9.48483L4.53627 9.48483L4.92325 9.16821ZM4.12538 7.78474L3.626 7.75983L3.626 7.75983L4.12538 7.78474ZM5.05695 6.48753L4.7034 6.13397L4.7034 6.13397L5.05695 6.48753ZM5.05695 6.48752L4.7034 6.13397L4.7034 6.13397L5.05695 6.48752ZM6.9049 4.63958L7.25845 4.99314L7.25845 4.99314L6.9049 4.63958ZM9.58558 4.50588L9.26896 4.89286L9.26896 4.89286L9.58558 4.50588ZM10.3486 5.1302L10.032 5.51718L10.032 5.51718L10.3486 5.1302ZM13.6052 3.7813L13.1077 3.73154L13.1077 3.73154L13.6052 3.7813ZM13.7032 2.80099L13.2057 2.75124L13.2057 2.75124L13.7032 2.80099ZM14.1173 1.25855L13.7818 0.887821L13.7818 0.887822L14.1173 1.25855ZM19.8827 1.25855L19.5472 1.62927L19.5472 1.62927L19.8827 1.25855ZM20.7968 2.80099V2.80097H19.7968V2.80099H20.7968ZM20.8924 3.73215L20.7943 2.75124L19.7992 2.85074L19.8973 3.83166L20.8924 3.73215ZM21.384 5.99926C21.3328 5.97802 21.2312 5.91811 21.1326 5.52627C21.0339 5.13373 20.9757 4.56582 20.8924 3.73215L19.8973 3.83166C19.9773 4.63152 20.0417 5.28878 20.1628 5.77024C20.2841 6.25242 20.4998 6.71538 21.0013 6.92314L21.384 5.99926ZM23.3348 4.74384C22.6863 5.27438 22.2437 5.63485 21.8963 5.84259C21.5495 6.04995 21.4353 6.02049 21.384 5.99926L21.0013 6.92314C21.5029 7.13089 21.9828 6.95602 22.4095 6.70084C22.8356 6.44604 23.3459 6.02682 23.968 5.51779L23.3348 4.74384ZM24.0977 4.11961L23.3348 4.74383L23.968 5.51779L24.731 4.89357L24.0977 4.11961ZM25.8227 3.20934C25.4891 3.1927 25.2072 3.30958 24.9469 3.47191C24.6986 3.62669 24.4203 3.85572 24.0977 4.11961L24.731 4.89357C25.0742 4.61275 25.2951 4.43324 25.476 4.32046C25.6447 4.21523 25.7217 4.20554 25.7729 4.20809L25.8227 3.20934ZM27.4486 4.28674C27.1539 3.99206 26.8997 3.73647 26.6681 3.55776C26.4252 3.37033 26.1563 3.22597 25.8227 3.20934L25.7729 4.20809C25.8241 4.21065 25.8997 4.22795 26.0572 4.34945C26.2259 4.47967 26.4279 4.68026 26.7415 4.99384L27.4486 4.28674ZM29.2965 6.13468L27.4486 4.28674L26.7415 4.99384L28.5894 6.84178L29.2965 6.13468ZM30.3739 7.76054C30.3573 7.42695 30.2129 7.15805 30.0255 6.91516C29.8468 6.68357 29.5912 6.42935 29.2965 6.13468L28.5894 6.84178C28.903 7.15536 29.1036 7.35733 29.2338 7.52608C29.3553 7.68353 29.3726 7.75911 29.3752 7.81035L30.3739 7.76054ZM29.4636 9.48554C29.7275 9.163 29.9566 8.88461 30.1113 8.63639C30.2737 8.37606 30.3906 8.09413 30.3739 7.76054L29.3752 7.81035C29.3777 7.8616 29.368 7.93852 29.2628 8.10728C29.15 8.28815 28.9705 8.50907 28.6897 8.8523L29.4636 9.48554ZM28.8394 10.2485L29.4636 9.48554L28.6897 8.8523L28.0654 9.6153L28.8394 10.2485ZM27.584 12.1993C27.5627 12.148 27.5333 12.0338 27.7406 11.687C27.9484 11.3396 28.3088 10.897 28.8394 10.2485L28.0654 9.6153C27.5564 10.2374 27.1372 10.7477 26.8824 11.1738C26.6272 11.6005 26.4523 12.0804 26.6601 12.582L27.584 12.1993ZM29.8511 12.6909C29.0174 12.6076 28.4495 12.5495 28.0569 12.4507C27.6651 12.3521 27.6052 12.2505 27.584 12.1993L26.6601 12.582C26.8678 13.0835 27.3308 13.2992 27.813 13.4205C28.2944 13.5416 28.9517 13.606 29.7516 13.686L29.8511 12.6909ZM30.8321 12.7891L29.8511 12.6909L29.7516 13.686L30.7326 13.7841L30.8321 12.7891ZM32.6955 13.3651C32.4714 13.1175 32.1894 13.0008 31.8905 12.9315C31.6055 12.8654 31.2467 12.8305 30.8321 12.7891L30.7326 13.7841C31.1738 13.8282 31.457 13.8575 31.6646 13.9057C31.8584 13.9506 31.9196 13.9981 31.9541 14.0362L32.6955 13.3651ZM33.0833 15.2766C33.0833 14.8599 33.0843 14.4994 33.0469 14.2093C33.0077 13.905 32.9196 13.6128 32.6955 13.3651L31.954 14.0362C31.9885 14.0742 32.0297 14.1399 32.0551 14.3371C32.0824 14.5485 32.0833 14.8332 32.0833 15.2766H33.0833ZM33.0833 17.89V15.2766H32.0833V17.89H33.0833ZM32.6955 19.8015C32.9196 19.5539 33.0077 19.2617 33.0469 18.9574C33.0843 18.6673 33.0833 18.3068 33.0833 17.89H32.0833C32.0833 18.3335 32.0824 18.6182 32.0551 18.8296C32.0297 19.0268 31.9885 19.0925 31.954 19.1305L32.6955 19.8015ZM30.8321 20.3776C31.2468 20.3362 31.6056 20.3012 31.8905 20.2352C32.1894 20.1659 32.4714 20.0492 32.6955 19.8015L31.954 19.1305C31.9196 19.1686 31.8584 19.2161 31.6646 19.261C31.457 19.3092 31.1739 19.3385 30.7326 19.3826L30.8321 20.3776ZM30.7823 20.3801H30.7823V19.3801H30.7823V20.3801ZM29.8517 20.4757L30.8321 20.3776L30.7326 19.3826L29.7522 19.4806L29.8517 20.4757ZM27.5846 20.9673C27.6058 20.9161 27.6657 20.8145 28.0575 20.7159C28.4501 20.6172 29.018 20.559 29.8517 20.4757L29.7522 19.4806C28.9523 19.5606 28.295 19.625 27.8136 19.7461C27.3314 19.8674 26.8684 20.0831 26.6607 20.5846L27.5846 20.9673ZM28.84 22.9181C28.3094 22.2696 27.949 21.827 27.7412 21.4796C27.5339 21.1328 27.5633 21.0186 27.5846 20.9673L26.6607 20.5846C26.4529 21.0862 26.6278 21.5661 26.883 21.9928C27.1378 22.4189 27.557 22.9292 28.066 23.5513L28.84 22.9181ZM29.4637 23.6804L28.84 22.9181L28.066 23.5513L28.6898 24.3137L29.4637 23.6804ZM30.374 25.4054C30.3906 25.0718 30.2738 24.7899 30.1114 24.5296C29.9567 24.2814 29.7276 24.003 29.4637 23.6804L28.6898 24.3137C28.9706 24.6569 29.1501 24.8778 29.2629 25.0587C29.3681 25.2275 29.3778 25.3044 29.3753 25.3556L30.374 25.4054ZM29.2966 27.0313C29.5913 26.7366 29.8469 26.4824 30.0256 26.2508C30.213 26.0079 30.3574 25.739 30.374 25.4054L29.3753 25.3556C29.3727 25.4069 29.3554 25.4824 29.2339 25.6399C29.1037 25.8086 28.9031 26.0106 28.5895 26.3242L29.2966 27.0313ZM27.4487 28.8792L29.2966 27.0313L28.5895 26.3242L26.7416 28.1721L27.4487 28.8792ZM25.8228 29.9566C26.1564 29.94 26.4253 29.7956 26.6682 29.6082C26.8998 29.4295 27.154 29.1739 27.4487 28.8792L26.7416 28.1721C26.428 28.4857 26.226 28.6863 26.0573 28.8165C25.8998 28.938 25.8242 28.9553 25.773 28.9579L25.8228 29.9566ZM24.0978 29.0464C24.4203 29.3103 24.6987 29.5393 24.947 29.6941C25.2073 29.8564 25.4892 29.9733 25.8228 29.9566L25.773 28.9579C25.7217 28.9604 25.6448 28.9507 25.4761 28.8455C25.2952 28.7327 25.0743 28.5532 24.731 28.2724L24.0978 29.0464ZM23.3348 28.4221L24.0978 29.0464L24.731 28.2724L23.9681 27.6482L23.3348 28.4221ZM21.3841 27.1667C21.4354 27.1455 21.5496 27.116 21.8963 27.3234C22.2437 27.5311 22.6864 27.8916 23.3348 28.4221L23.9681 27.6482C23.3459 27.1391 22.8357 26.7199 22.4096 26.4651C21.9828 26.2099 21.503 26.0351 21.0014 26.2428L21.3841 27.1667ZM20.8924 29.4338C20.9758 28.6001 21.0339 28.0322 21.1327 27.6397C21.2313 27.2478 21.3328 27.1879 21.3841 27.1667L21.0014 26.2428C20.4999 26.4506 20.2842 26.9135 20.1629 27.3957C20.0418 27.8772 19.9774 28.5344 19.8974 29.3343L20.8924 29.4338ZM20.7943 30.4154L20.8924 29.4338L19.8974 29.3343L19.7992 30.3159L20.7943 30.4154ZM20.7968 30.3657V30.3657H19.7968V30.3657H20.7968ZM20.2182 32.2788C20.4658 32.0547 20.5825 31.7727 20.6518 31.4739C20.7179 31.1889 20.7528 30.8301 20.7943 30.4154L19.7992 30.3159C19.7551 30.7572 19.7258 31.0403 19.6777 31.248C19.6327 31.4417 19.5852 31.503 19.5472 31.5374L20.2182 32.2788ZM18.3067 32.6667C18.7234 32.6667 19.0839 32.6676 19.374 32.6302C19.6783 32.591 19.9705 32.503 20.2182 32.2788L19.5472 31.5374C19.5091 31.5718 19.4434 31.613 19.2462 31.6384C19.0348 31.6657 18.7501 31.6667 18.3067 31.6667V32.6667ZM15.6933 32.6667H18.3067V31.6667H15.6933V32.6667ZM13.7818 32.2788C14.0294 32.503 14.3217 32.591 14.6259 32.6302C14.9161 32.6676 15.2766 32.6667 15.6933 32.6667V31.6667C15.2498 31.6667 14.9652 31.6657 14.7538 31.6384C14.5565 31.613 14.4908 31.5718 14.4528 31.5374L13.7818 32.2788ZM13.2057 30.4154C13.2472 30.8301 13.2821 31.1889 13.3481 31.4739C13.4174 31.7727 13.5342 32.0547 13.7818 32.2788L14.4528 31.5374C14.4148 31.503 14.3672 31.4417 14.3223 31.248C14.2742 31.0403 14.2449 30.7572 14.2007 30.3159L13.2057 30.4154ZM13.1076 29.4344L13.2057 30.4154L14.2007 30.3159L14.1026 29.3349L13.1076 29.4344ZM12.6159 27.1673C12.6672 27.1885 12.7688 27.2485 12.8674 27.6403C12.9661 28.0328 13.0242 28.6007 13.1076 29.4344L14.1026 29.3349C14.0227 28.535 13.9583 27.8778 13.8371 27.3963C13.7158 26.9142 13.5002 26.4512 12.9986 26.2434L12.6159 27.1673ZM10.6652 28.4227C11.3136 27.8922 11.7563 27.5317 12.1037 27.324C12.4505 27.1166 12.5647 27.1461 12.6159 27.1673L12.9986 26.2434C12.4971 26.0357 12.0172 26.2106 11.5905 26.4657C11.1644 26.7205 10.6541 27.1397 10.032 27.6488L10.6652 28.4227ZM9.90211 29.0471L10.6652 28.4227L10.032 27.6488L9.26888 28.2731L9.90211 29.0471ZM8.17712 29.9573C8.5107 29.974 8.79264 29.8571 9.05297 29.6948C9.30119 29.54 9.57958 29.311 9.90211 29.0471L9.26888 28.2731C8.92565 28.5539 8.70472 28.7334 8.52386 28.8462C8.3551 28.9514 8.27818 28.9611 8.22693 28.9586L8.17712 29.9573ZM6.55125 28.8799C6.84593 29.1746 7.10015 29.4302 7.33174 29.6089C7.57462 29.7963 7.84353 29.9407 8.17711 29.9573L8.22693 28.9586C8.17568 28.956 8.1001 28.9387 7.94266 28.8172C7.77391 28.687 7.57194 28.4864 7.25836 28.1728L6.55125 28.8799ZM4.70331 27.032L6.55125 28.8799L7.25836 28.1728L5.41042 26.3249L4.70331 27.032ZM3.62591 25.4061C3.64255 25.7397 3.78691 26.0086 3.97433 26.2515C4.15304 26.4831 4.40864 26.7373 4.70331 27.032L5.41042 26.3249C5.09684 26.0113 4.89624 25.8093 4.76603 25.6406C4.64453 25.4832 4.62723 25.4076 4.62467 25.3563L3.62591 25.4061ZM4.53619 23.6811C4.27229 24.0037 4.04326 24.2821 3.88849 24.5303C3.72616 24.7906 3.60927 25.0726 3.62591 25.4061L4.62467 25.3563C4.62211 25.3051 4.63181 25.2282 4.73704 25.0594C4.84982 24.8785 5.02932 24.6576 5.31014 24.3144L4.53619 23.6811ZM5.16048 22.9181L4.53619 23.6811L5.31014 24.3144L5.93443 23.5514L5.16048 22.9181ZM6.4159 20.9674C6.43713 21.0186 6.4666 21.1328 6.25923 21.4796C6.05149 21.827 5.69102 22.2697 5.16048 22.9181L5.93443 23.5514C6.44346 22.9292 6.86268 22.4189 7.11748 21.9928C7.37266 21.5661 7.54753 21.0862 7.33978 20.5847L6.4159 20.9674ZM4.14879 20.4757C4.98247 20.5591 5.55037 20.6172 5.94291 20.716C6.33475 20.8145 6.39466 20.9161 6.4159 20.9674L7.33978 20.5847C7.13203 20.0831 6.66906 19.8675 6.18689 19.7462C5.70542 19.625 5.04817 19.5607 4.2483 19.4807L4.14879 20.4757ZM3.1679 20.3776L4.1488 20.4757L4.2483 19.4807L3.2674 19.3826L3.1679 20.3776ZM3.21763 20.3801H3.21765V19.3801H3.21763V20.3801ZM1.30448 19.8015C1.52859 20.0492 1.8106 20.1659 2.10946 20.2352C2.39442 20.3012 2.75322 20.3361 3.16788 20.3776L3.26738 19.3826C2.82612 19.3385 2.54298 19.3092 2.33534 19.261C2.14161 19.2161 2.08036 19.1686 2.04593 19.1305L1.30448 19.8015ZM0.916656 17.89C0.916656 18.3068 0.915685 18.6673 0.953076 18.9574C0.992292 19.2617 1.08036 19.5539 1.30448 19.8015L2.04593 19.1305C2.0115 19.0925 1.97029 19.0268 1.94487 18.8295C1.91763 18.6181 1.91666 18.3335 1.91666 17.89L0.916656 17.89ZM0.916657 15.2766L0.916656 17.89L1.91666 17.89L1.91666 15.2766L0.916657 15.2766ZM1.30448 13.3651C1.08036 13.6128 0.992293 13.905 0.953077 14.2093C0.915685 14.4994 0.916657 14.8599 0.916657 15.2766L1.91666 15.2766C1.91666 14.8332 1.91763 14.5485 1.94487 14.3371C1.97029 14.1399 2.0115 14.0742 2.04593 14.0362L1.30448 13.3651ZM3.1679 12.789C2.75323 12.8305 2.39443 12.8654 2.10947 12.9315C1.8106 13.0008 1.5286 13.1175 1.30448 13.3651L2.04593 14.0362C2.08036 13.9981 2.14161 13.9506 2.33535 13.9056C2.54299 13.8575 2.82613 13.8282 3.2674 13.7841L3.1679 12.789ZM4.1494 12.6909L3.1679 12.789L3.2674 13.7841L4.2489 13.6859L4.1494 12.6909ZM6.4165 12.1992C6.39527 12.2505 6.33536 12.3521 5.94352 12.4507C5.55097 12.5494 4.98307 12.6075 4.1494 12.6909L4.2489 13.6859C5.04877 13.6059 5.70602 13.5416 6.18749 13.4204C6.66967 13.2991 7.13263 13.0835 7.34038 12.5819L6.4165 12.1992ZM5.16109 10.2485C5.69163 10.8969 6.05209 11.3396 6.25983 11.687C6.4672 12.0338 6.43773 12.148 6.4165 12.1992L7.34038 12.5819C7.54813 12.0804 7.37326 11.6005 7.11809 11.1738C6.86329 10.7477 6.44407 10.2374 5.93504 9.61525L5.16109 10.2485ZM5.14806 10.2319L5.14806 10.2319L5.94806 9.63187L5.94806 9.63187L5.14806 10.2319ZM4.53627 9.48483L5.16108 10.2485L5.93504 9.61525L5.31023 8.85159L4.53627 9.48483ZM3.626 7.75983C3.60936 8.09342 3.72625 8.37535 3.88858 8.63569C4.04335 8.88391 4.27238 9.1623 4.53627 9.48483L5.31023 8.85159C5.02941 8.50837 4.84991 8.28744 4.73713 8.10657C4.6319 7.93782 4.6222 7.8609 4.62476 7.80965L3.626 7.75983ZM4.7034 6.13397C4.40872 6.42865 4.15313 6.68287 3.97442 6.91445C3.78699 7.15734 3.64264 7.42625 3.626 7.75983L4.62476 7.80965C4.62731 7.7584 4.64462 7.68282 4.76611 7.52538C4.89633 7.35663 5.09693 7.15466 5.4105 6.84108L4.7034 6.13397ZM4.7034 6.13397L4.7034 6.13397L5.4105 6.84108L5.41051 6.84108L4.7034 6.13397ZM6.55134 4.28603L4.7034 6.13397L5.41051 6.84108L7.25845 4.99314L6.55134 4.28603ZM8.1772 3.20863C7.84362 3.22527 7.57471 3.36963 7.33182 3.55705C7.10024 3.73576 6.84602 3.99136 6.55134 4.28603L7.25845 4.99314C7.57203 4.67956 7.774 4.47896 7.94275 4.34874C8.10019 4.22725 8.17577 4.20994 8.22702 4.20739L8.1772 3.20863ZM9.9022 4.1189C9.57967 3.85501 9.30128 3.62598 9.05306 3.47121C8.79273 3.30888 8.51079 3.19199 8.1772 3.20863L8.22702 4.20739C8.27827 4.20483 8.35519 4.21453 8.52394 4.31976C8.70481 4.43254 8.92574 4.61204 9.26896 4.89286L9.9022 4.1189ZM10.6653 4.74322L9.9022 4.1189L9.26896 4.89286L10.032 5.51718L10.6653 4.74322ZM12.616 5.99864C12.5647 6.01988 12.4505 6.04934 12.1038 5.84198C11.7564 5.63423 11.3137 5.27377 10.6653 4.74322L10.032 5.51718C10.6542 6.02621 11.1644 6.44543 11.5905 6.70023C12.0173 6.95541 12.4971 7.13027 12.9987 6.92252L12.616 5.99864ZM13.1077 3.73154C13.0243 4.56521 12.9662 5.13311 12.8674 5.52566C12.7688 5.9175 12.6673 5.97741 12.616 5.99864L12.9987 6.92252C13.5002 6.71477 13.7159 6.25181 13.8372 5.76963C13.9583 5.28816 14.0227 4.63091 14.1027 3.83105L13.1077 3.73154ZM13.2057 2.75124L13.1077 3.73154L14.1027 3.83105L14.2007 2.85074L13.2057 2.75124ZM13.7818 0.887822C13.5342 1.11194 13.4174 1.39394 13.3481 1.69281C13.2821 1.97777 13.2472 2.33658 13.2057 2.75124L14.2007 2.85074C14.2449 2.40948 14.2742 2.12633 14.3223 1.91869C14.3672 1.72495 14.4148 1.6637 14.4528 1.62927L13.7818 0.887822ZM15.6933 0.5C15.2766 0.5 14.9161 0.499029 14.6259 0.53642C14.3217 0.575636 14.0294 0.663704 13.7818 0.887821L14.4528 1.62927C14.4908 1.59484 14.5565 1.55364 14.7538 1.52822C14.9652 1.50097 15.2498 1.5 15.6933 1.5V0.5ZM18.3067 0.5H15.6933V1.5H18.3067V0.5ZM20.2182 0.887821C19.9705 0.663704 19.6783 0.575636 19.374 0.53642C19.0839 0.499029 18.7234 0.5 18.3067 0.5V1.5C18.7501 1.5 19.0348 1.50097 19.2462 1.52822C19.4434 1.55364 19.5091 1.59484 19.5472 1.62927L20.2182 0.887821ZM20.7943 2.75122C20.7528 2.33656 20.7179 1.97777 20.6518 1.69281C20.5825 1.39394 20.4658 1.11194 20.2182 0.887821L19.5472 1.62927C19.5852 1.6637 19.6327 1.72495 19.6777 1.91869C19.7258 2.12632 19.7551 2.40947 19.7992 2.85073L20.7943 2.75122ZM22.7333 16.5833C22.7333 19.7498 20.1664 22.3167 17 22.3167V23.3167C20.7187 23.3167 23.7333 20.302 23.7333 16.5833H22.7333ZM17 10.85C20.1664 10.85 22.7333 13.4169 22.7333 16.5833H23.7333C23.7333 12.8646 20.7187 9.85 17 9.85V10.85ZM11.2667 16.5833C11.2667 13.4169 13.8336 10.85 17 10.85V9.85C13.2813 9.85 10.2667 12.8646 10.2667 16.5833H11.2667ZM17 22.3167C13.8336 22.3167 11.2667 19.7498 11.2667 16.5833H10.2667C10.2667 20.302 13.2813 23.3167 17 23.3167V22.3167Z" fill="#222222"/>
</svg>
