<svg width="47" height="64" viewBox="0 0 47 64" fill="none" xmlns="http://www.w3.org/2000/svg">
<path fill-rule="evenodd" clip-rule="evenodd" d="M15.3021 57.6672V41.6156H15.3074L15.3018 27.7657L31.9127 27.76L31.9178 40.1391C40.5045 37.0747 46.5716 29.5744 46.5716 20.8077C46.5716 9.31592 36.1462 0 23.2858 0C10.4254 0 0 9.31592 0 20.8077V39.8321V41.6156V57.6672C0 60.9507 2.97871 63.6123 6.6531 63.6123H8.64903C12.3234 63.6123 15.3021 60.9507 15.3021 57.6672ZM28.0275 19.6678C27.8193 19.7929 27.5667 19.8674 27.2878 19.8675L19.9333 19.8701C19.6546 19.8701 19.402 19.7958 19.1936 19.6708L16.2687 24.9087C15.8272 25.6994 16.471 26.6288 17.4599 26.6285L29.767 26.6244C30.7559 26.624 31.3989 25.694 30.9567 24.9036L28.0275 19.6678ZM22.0517 12.7817C22.5034 11.7993 24.0603 11.7988 24.5127 12.7809L25.8503 15.6834C26.2107 16.4659 25.5671 17.3248 24.6202 17.3252L21.948 17.3261C21.001 17.3263 20.3568 16.4679 20.7167 15.6853L22.0517 12.7817Z" fill="#0445FE"/>
</svg>
